<?xml version="1.0" encoding="utf-8"?>
<!-- Generator: Adobe Illustrator 18.0.0, SVG Export Plug-In . SVG Version: 6.00 Build 0)  -->
<!DOCTYPE svg PUBLIC "-//W3C//DTD SVG 1.1//EN" "http://www.w3.org/Graphics/SVG/1.1/DTD/svg11.dtd">
<svg version="1.1" id="Layer_1" xmlns="http://www.w3.org/2000/svg" xmlns:xlink="http://www.w3.org/1999/xlink" x="0px" y="0px"
	 viewBox="0 0 506.9 194.5" enable-background="new 0 0 506.9 194.5" xml:space="preserve">
<g>
	<path fill="#FFFFFF" d="M264.6,31.8V0h43.7v31.8H264.6z M307.2,191.2V44.9h-41.5v146.3H307.2z"/>
	<path fill="#FFFFFF" d="M107.5,45.2c-5.6-2-11.9-3-19.3-2.7c-24.6-1.1-38.2,12-46.7,32.2V45.3H0v146.3h41.5v-54
		c0-33.2,15.4-49.9,40.6-51.4C87,68.8,96,55.1,107.5,45.2z"/>
	<path fill="#FFFFFF" d="M502.2,76.5c-21.3,0.6-47.1-16.1-57.1-22.4c-0.9-0.6-1.9-1.1-2.8-1.6c-1-0.6-2.1-1.1-3.2-1.7v61.6h0
		c0,5.5-1.6,11.3-5,16.9l-0.3,0.5c-10,16.1-31,25.5-50.7,18.9c-19.1-6.5-24.2-25-14.1-41.4l0.3-0.5c10-16.1,31-25.5,50.7-18.9
		c1.5,0.5,2.9,1.1,4.3,1.8V45.2c-7-1.9-14.5-3-22.4-3c-45.6,0-79.4,34.1-79.4,76.1v0.5c0,42,33.6,75.6,78.9,75.6
		c45.6,0,79.4-34.1,79.4-76.1v-0.5c0-3.3-0.2-6.5-0.6-9.6C503.7,101.9,513.5,77.4,502.2,76.5z"/>
	<path fill="#FFFFFF" d="M205.6,191.2v-21c-10.1,13.6-24,23.7-45.6,23.7c-34.1,0-66.6-26.7-66.6-75.6v-0.5
		c0-48.9,31.9-75.6,66.6-75.6c22.1,0,35.7,10.1,45.6,21.8V0h41.5v191.2H205.6z M138.3,106.6l-0.3,0.5c-10.1,16.4-5,34.9,14.1,41.4
		c19.7,6.7,40.7-2.8,50.7-18.9l0.3-0.5c10.1-16.4,5-34.9-14.1-41.4C169.2,81,148.2,90.4,138.3,106.6z"/>
</g>
</svg>
